<svg width="138" height="42" viewBox="0 0 138 42" fill="none" xmlns="http://www.w3.org/2000/svg">
<rect width="138" height="42" rx="8" fill="white"/>
<path d="M25.3061 20.9204C25.317 20.0603 25.5436 19.2169 25.9645 18.4687C26.3855 17.7206 26.9872 17.092 27.7138 16.6415C27.2522 15.9766 26.6433 15.4295 25.9355 15.0435C25.2276 14.6575 24.4403 14.4433 23.636 14.4179C21.9203 14.2362 20.257 15.4534 19.3827 15.4534C18.4915 15.4534 17.1454 14.4359 15.6959 14.466C14.7583 14.4966 13.8445 14.7716 13.0436 15.2642C12.2427 15.7569 11.582 16.4504 11.1258 17.2772C9.14984 20.728 10.6238 25.7994 12.5166 28.5887C13.4636 29.9545 14.5704 31.4802 16.0186 31.4261C17.4358 31.3668 17.9651 30.5146 19.6757 30.5146C21.3705 30.5146 21.8671 31.4261 23.3447 31.3917C24.8654 31.3668 25.8235 30.0198 26.7373 28.641C27.4177 27.6678 27.9413 26.5922 28.2887 25.454C27.4052 25.0771 26.6512 24.4462 26.1209 23.64C25.5905 22.8338 25.3071 21.888 25.3061 20.9204Z" fill="black"/>
<path d="M22.5153 12.5836C23.3444 11.5796 23.7529 10.2892 23.654 8.98633C22.3872 9.12053 21.2171 9.73119 20.3768 10.6966C19.9659 11.1683 19.6512 11.717 19.4507 12.3114C19.2502 12.9058 19.1678 13.5342 19.2082 14.1607C19.8418 14.1673 20.4687 14.0288 21.0415 13.7556C21.6143 13.4824 22.1182 13.0817 22.5153 12.5836Z" fill="black"/>
<path d="M46.7364 27.441H41.9002L40.7388 30.9H38.6904L43.2712 18.1025H45.3994L49.9801 30.9H47.8968L46.7364 27.441ZM42.4011 25.8448H46.2346L44.3448 20.2311H44.2919L42.4011 25.8448Z" fill="black"/>
<path d="M59.8737 26.2348C59.8737 29.1342 58.3351 30.997 56.0133 30.997C55.4252 31.0281 54.8402 30.8914 54.3255 30.6027C53.8108 30.314 53.387 29.885 53.1028 29.3646H53.0589V33.986H51.1602V21.5691H52.9981V23.1209H53.033C53.3303 22.6031 53.7611 22.1763 54.2798 21.8858C54.7984 21.5954 55.3855 21.4522 55.9784 21.4714C58.3261 21.4715 59.8737 23.3434 59.8737 26.2348ZM57.922 26.2348C57.922 24.3457 56.9542 23.1038 55.4775 23.1038C54.0268 23.1038 53.0509 24.3719 53.0509 26.2348C53.0509 28.1147 54.0268 29.3737 55.4775 29.3737C56.9542 29.3737 57.922 28.1409 57.922 26.2348Z" fill="black"/>
<path d="M70.0543 26.2347C70.0543 29.1342 68.5158 30.997 66.194 30.997C65.6058 31.0281 65.0209 30.8914 64.5062 30.6027C63.9914 30.314 63.5677 29.8849 63.2835 29.3646H63.2396V33.986H61.3408V21.5691H63.1787V23.1209H63.2136C63.5109 22.6031 63.9418 22.1763 64.4604 21.8858C64.9791 21.5954 65.5661 21.4522 66.159 21.4714C68.5068 21.4714 70.0543 23.3433 70.0543 26.2347ZM68.1027 26.2347C68.1027 24.3457 67.1349 23.1038 65.6582 23.1038C64.2074 23.1038 63.2316 24.3719 63.2316 26.2347C63.2316 28.1147 64.2074 29.3737 65.6582 29.3737C67.1349 29.3737 68.1027 28.1409 68.1027 26.2347H68.1027Z" fill="black"/>
<path d="M76.7835 27.3338C76.9242 28.6029 78.1465 29.4361 79.8167 29.4361C81.4171 29.4361 82.5685 28.6028 82.5685 27.4586C82.5685 26.4652 81.8741 25.8705 80.2298 25.4629L78.5855 25.0633C76.2557 24.4957 75.1741 23.3967 75.1741 21.6134C75.1741 19.4053 77.0819 17.8887 79.7908 17.8887C82.4717 17.8887 84.3096 19.4053 84.3715 21.6134H82.4548C82.34 20.3362 81.2934 19.5653 79.7638 19.5653C78.2342 19.5653 77.1876 20.3453 77.1876 21.4805C77.1876 22.3853 77.8561 22.9177 79.4914 23.3252L80.8893 23.6714C83.4924 24.2924 84.574 25.3471 84.574 27.219C84.574 29.6132 82.6833 31.1128 79.676 31.1128C76.8623 31.1128 74.9626 29.6484 74.8398 27.3337L76.7835 27.3338Z" fill="black"/>
<path d="M88.6717 19.3613V21.5694H90.4308V23.086H88.6717V28.2297C88.6717 29.0288 89.0239 29.4012 89.7972 29.4012C90.006 29.3975 90.2145 29.3827 90.4218 29.3569V30.8645C90.0741 30.93 89.7208 30.9597 89.3671 30.953C87.4944 30.953 86.764 30.2435 86.764 28.434V23.086H85.419V21.5694H86.764V19.3613H88.6717Z" fill="black"/>
<path d="M91.4493 26.2345C91.4493 23.2988 93.1634 21.4541 95.8364 21.4541C98.5184 21.4541 100.225 23.2988 100.225 26.2345C100.225 29.1782 98.5274 31.0149 95.8364 31.0149C93.1464 31.0149 91.4493 29.1782 91.4493 26.2345ZM98.2899 26.2345C98.2899 24.2207 97.375 23.0321 95.8364 23.0321C94.2979 23.0321 93.3839 24.2298 93.3839 26.2345C93.3839 28.2564 94.2979 29.4359 95.8364 29.4359C97.375 29.4359 98.2899 28.2564 98.2899 26.2345H98.2899Z" fill="black"/>
<path d="M101.79 21.569H103.601V23.1571H103.645C103.767 22.6611 104.055 22.2228 104.461 21.9158C104.866 21.6088 105.363 21.4518 105.87 21.4713C106.089 21.4706 106.307 21.4945 106.52 21.5428V23.3342C106.244 23.2491 105.956 23.21 105.667 23.2185C105.391 23.2072 105.116 23.2562 104.861 23.3623C104.606 23.4683 104.376 23.6288 104.188 23.8327C104 24.0367 103.858 24.2792 103.772 24.5437C103.686 24.8082 103.657 25.0885 103.689 25.3651V30.8993H101.79L101.79 21.569Z" fill="black"/>
<path d="M115.275 28.1588C115.02 29.8525 113.384 31.0149 111.292 31.0149C108.601 31.0149 106.931 29.1963 106.931 26.2788C106.931 23.3522 108.61 21.4541 111.212 21.4541C113.771 21.4541 115.381 23.2274 115.381 26.0564V26.7126H108.847V26.8283C108.817 27.1717 108.86 27.5176 108.972 27.8431C109.085 28.1686 109.265 28.4662 109.5 28.7161C109.736 28.9661 110.021 29.1627 110.338 29.2928C110.654 29.423 110.994 29.4838 111.336 29.4711C111.785 29.5135 112.235 29.4087 112.62 29.1722C113.005 28.9358 113.304 28.5803 113.472 28.1587L115.275 28.1588ZM108.856 25.374H113.481C113.498 25.0653 113.452 24.7563 113.345 24.4665C113.238 24.1767 113.073 23.9123 112.86 23.69C112.647 23.4676 112.39 23.2921 112.107 23.1744C111.823 23.0567 111.519 22.9993 111.212 23.006C110.903 23.0041 110.596 23.064 110.31 23.1823C110.024 23.3005 109.764 23.4748 109.545 23.6949C109.326 23.9151 109.152 24.1768 109.034 24.465C108.916 24.7532 108.856 25.0622 108.856 25.374V25.374Z" fill="black"/>
<path d="M39.2802 14.9348V12.2203H39.7611C39.8842 12.1069 39.9881 11.9715 40.0727 11.8143C40.1599 11.657 40.233 11.4702 40.292 11.2536C40.3536 11.0371 40.4049 10.7844 40.4459 10.4957C40.4869 10.2044 40.5228 9.87188 40.5536 9.49809L40.7383 7.28241H44.7546V12.2203H45.6625V14.9348H44.5392V13.2218H40.419V14.9348H39.2802ZM40.9922 12.2203H43.6313V8.27231H41.7693L41.6462 9.49809C41.5872 10.1219 41.5128 10.6633 41.423 11.1221C41.3333 11.5784 41.1897 11.9445 40.9922 12.2203Z" fill="black"/>
<path d="M49.0437 13.3417C48.4897 13.3417 48.0063 13.2141 47.5934 12.9589C47.1805 12.7037 46.8599 12.3466 46.6316 11.8878C46.4033 11.4289 46.2892 10.8927 46.2892 10.2792C46.2892 9.66307 46.4033 9.1243 46.6316 8.66286C46.8599 8.20142 47.1805 7.8431 47.5934 7.58789C48.0063 7.33268 48.4897 7.20508 49.0437 7.20508C49.5977 7.20508 50.0811 7.33268 50.4941 7.58789C50.907 7.8431 51.2276 8.20142 51.4558 8.66286C51.6841 9.1243 51.7982 9.66307 51.7982 10.2792C51.7982 10.8927 51.6841 11.4289 51.4558 11.8878C51.2276 12.3466 50.907 12.7037 50.4941 12.9589C50.0811 13.2141 49.5977 13.3417 49.0437 13.3417ZM49.0476 12.3711C49.4066 12.3711 49.7041 12.2757 49.9401 12.085C50.176 11.8942 50.3504 11.6403 50.4633 11.3232C50.5787 11.0061 50.6364 10.6568 50.6364 10.2753C50.6364 9.89637 50.5787 9.54835 50.4633 9.23128C50.3504 8.91162 50.176 8.65513 49.9401 8.46179C49.7041 8.26845 49.4066 8.17178 49.0476 8.17178C48.6859 8.17178 48.3859 8.26845 48.1474 8.46179C47.9114 8.65513 47.7357 8.91162 47.6203 9.23128C47.5075 9.54835 47.451 9.89637 47.451 10.2753C47.451 10.6568 47.5075 11.0061 47.6203 11.3232C47.7357 11.6403 47.9114 11.8942 48.1474 12.085C48.3859 12.2757 48.6859 12.3711 49.0476 12.3711Z" fill="black"/>
<path d="M55.3391 13.3417C54.7672 13.3417 54.2747 13.2115 53.8618 12.9511C53.4515 12.6882 53.136 12.326 52.9154 11.8646C52.6949 11.4031 52.5846 10.8747 52.5846 10.2792C52.5846 9.67596 52.6974 9.14363 52.9231 8.68219C53.1488 8.21818 53.4668 7.85599 53.8772 7.59562C54.2875 7.33526 54.771 7.20508 55.3275 7.20508C55.7764 7.20508 56.1765 7.28886 56.5278 7.45642C56.8792 7.6214 57.1626 7.85341 57.378 8.15244C57.596 8.45147 57.7255 8.80077 57.7666 9.20034H56.6471C56.5855 8.92193 56.4445 8.68219 56.2239 8.48112C56.0059 8.28005 55.7135 8.17951 55.3468 8.17951C55.0262 8.17951 54.7454 8.26458 54.5043 8.43472C54.2657 8.60228 54.0798 8.84202 53.9464 9.15394C53.8131 9.46329 53.7464 9.82934 53.7464 10.2521C53.7464 10.6852 53.8118 11.059 53.9426 11.3735C54.0734 11.688 54.2581 11.9316 54.4966 12.1043C54.7377 12.277 55.0211 12.3634 55.3468 12.3634C55.5648 12.3634 55.7623 12.3234 55.9392 12.2435C56.1188 12.161 56.2688 12.0437 56.3893 11.8916C56.5124 11.7395 56.5984 11.5565 56.6471 11.3425H57.7666C57.7255 11.7266 57.6012 12.0695 57.3934 12.3711C57.1857 12.6727 56.9074 12.9099 56.5586 13.0826C56.2124 13.2553 55.8059 13.3417 55.3391 13.3417Z" fill="black"/>
<path d="M58.3173 8.28005V7.28241H63.3031V8.28005H61.3757V13.2218H60.2524V8.28005H58.3173Z" fill="black"/>
<path d="M65.0147 15.4491C64.8429 15.4491 64.6864 15.4349 64.5454 15.4065C64.4043 15.3808 64.2991 15.3524 64.2299 15.3215L64.5069 14.3741C64.7172 14.4308 64.9044 14.4553 65.0686 14.4476C65.2327 14.4398 65.3776 14.378 65.5033 14.262C65.6315 14.146 65.7444 13.9565 65.8418 13.6936L65.9842 13.2991L63.8221 7.28241H65.0532L66.5497 11.8916H66.6112L68.1077 7.28241H69.3426L66.9075 14.0145C66.7946 14.3238 66.651 14.5855 66.4766 14.7995C66.3022 15.016 66.0944 15.1784 65.8534 15.2867C65.6123 15.3949 65.3327 15.4491 65.0147 15.4491Z" fill="black"/>
<path d="M70.1915 13.2218V7.28241H75.0119V13.2218H73.8847V8.28005H71.311V13.2218H70.1915Z" fill="black"/>
<path d="M80.3224 9.75329V10.7548H77.1217V9.75329H80.3224ZM77.4448 7.28241V13.2218H76.3176V7.28241H77.4448ZM81.1264 7.28241V13.2218H80.0031V7.28241H81.1264Z" fill="black"/>
<path d="M84.9222 13.3417C84.3682 13.3417 83.8848 13.2141 83.4718 12.9589C83.0589 12.7037 82.7383 12.3466 82.5101 11.8878C82.2818 11.4289 82.1677 10.8927 82.1677 10.2792C82.1677 9.66307 82.2818 9.1243 82.5101 8.66286C82.7383 8.20142 83.0589 7.8431 83.4718 7.58789C83.8848 7.33268 84.3682 7.20508 84.9222 7.20508C85.4762 7.20508 85.9596 7.33268 86.3725 7.58789C86.7854 7.8431 87.106 8.20142 87.3343 8.66286C87.5625 9.1243 87.6767 9.66307 87.6767 10.2792C87.6767 10.8927 87.5625 11.4289 87.3343 11.8878C87.106 12.3466 86.7854 12.7037 86.3725 12.9589C85.9596 13.2141 85.4762 13.3417 84.9222 13.3417ZM84.926 12.3711C85.2851 12.3711 85.5826 12.2757 85.8185 12.085C86.0545 11.8942 86.2289 11.6403 86.3417 11.3232C86.4572 11.0061 86.5149 10.6568 86.5149 10.2753C86.5149 9.89637 86.4572 9.54835 86.3417 9.23128C86.2289 8.91162 86.0545 8.65513 85.8185 8.46179C85.5826 8.26845 85.2851 8.17178 84.926 8.17178C84.5644 8.17178 84.2643 8.26845 84.0258 8.46179C83.7899 8.65513 83.6142 8.91162 83.4988 9.23128C83.3859 9.54835 83.3295 9.89637 83.3295 10.2753C83.3295 10.6568 83.3859 11.0061 83.4988 11.3232C83.6142 11.6403 83.7899 11.8942 84.0258 12.085C84.2643 12.2757 84.5644 12.3711 84.926 12.3711Z" fill="black"/>
<path d="M91.3634 13.2218V7.28241H93.814C94.4808 7.28241 95.0091 7.42549 95.3989 7.71163C95.7888 7.99519 95.9837 8.38058 95.9837 8.8678C95.9837 9.21581 95.8734 9.49164 95.6529 9.69529C95.4323 9.89894 95.1399 10.0356 94.7757 10.1052C95.0399 10.1361 95.2823 10.216 95.5028 10.3449C95.7234 10.4712 95.9003 10.6414 96.0337 10.8553C96.1696 11.0693 96.2376 11.3245 96.2376 11.621C96.2376 11.9355 96.1568 12.2139 95.9952 12.4562C95.8337 12.6959 95.599 12.8841 95.2912 13.0207C94.986 13.1548 94.618 13.2218 94.1871 13.2218H91.3634ZM92.4444 12.2551H94.1871C94.4718 12.2551 94.6949 12.1868 94.8565 12.0502C95.0181 11.9135 95.0989 11.7279 95.0989 11.4934C95.0989 11.2175 95.0181 11.001 94.8565 10.8437C94.6949 10.6839 94.4718 10.604 94.1871 10.604H92.4444V12.2551ZM92.4444 9.75716H93.8255C94.0409 9.75716 94.2256 9.72623 94.3795 9.66436C94.5359 9.60249 94.6552 9.51484 94.7373 9.40142C94.8219 9.28541 94.8642 9.14879 94.8642 8.99154C94.8642 8.76211 94.7706 8.58295 94.5834 8.45405C94.3961 8.32516 94.1397 8.26071 93.814 8.26071H92.4444V9.75716Z" fill="black"/>
</svg>
