<svg width="138" height="42" viewBox="0 0 138 42" fill="none" xmlns="http://www.w3.org/2000/svg">
<rect width="138" height="42" rx="8" fill="white"/>
<path d="M107.209 31.1107H109.138V18.1465H107.209V31.1107ZM124.583 22.8165L122.372 28.4371H122.305L120.011 22.8165H117.933L121.374 30.6724L119.412 35.0421H121.425L126.728 22.8165H124.583ZM113.644 29.6382C113.011 29.6382 112.131 29.3214 112.131 28.5372C112.131 27.5366 113.228 27.153 114.175 27.153C115.024 27.153 115.422 27.3364 115.938 27.5869C115.788 28.7876 114.757 29.6382 113.644 29.6382ZM113.877 22.5329C112.48 22.5329 111.034 23.1502 110.435 24.5179L112.147 25.2349C112.513 24.5179 113.194 24.2841 113.91 24.2841C114.907 24.2841 115.921 24.8849 115.938 25.9523V26.0856C115.588 25.8854 114.841 25.5853 113.926 25.5853C112.081 25.5853 110.202 26.6024 110.202 28.5039C110.202 30.2386 111.715 31.3562 113.41 31.3562C114.708 31.3562 115.422 30.7724 115.872 30.0887H115.938V31.0893H117.799V26.1187C117.799 23.8174 116.088 22.5329 113.877 22.5329ZM101.956 24.3947H99.2123V19.9509H101.956C103.398 19.9509 104.217 21.1486 104.217 22.1727C104.217 23.1774 103.398 24.3947 101.956 24.3947ZM101.906 18.1465H97.2845V31.1107H99.2123V26.199H101.906C104.044 26.199 106.145 24.6462 106.145 22.1727C106.145 19.6993 104.044 18.1465 101.906 18.1465ZM76.7034 29.6406C75.3708 29.6406 74.2551 28.5213 74.2551 26.984C74.2551 25.4306 75.3708 24.2943 76.7034 24.2943C78.019 24.2943 79.0514 25.4306 79.0514 26.984C79.0514 28.5213 78.019 29.6406 76.7034 29.6406ZM78.9182 23.5424H78.8515C78.4187 23.0246 77.5856 22.5568 76.5366 22.5568C74.3383 22.5568 72.3234 24.4947 72.3234 26.984C72.3234 29.4568 74.3383 31.3781 76.5366 31.3781C77.5856 31.3781 78.4187 30.9102 78.8515 30.3759H78.9182V31.0106C78.9182 32.6983 78.019 33.6004 76.5701 33.6004C75.3877 33.6004 74.655 32.7481 74.3549 32.0298L72.6731 32.7315C73.1561 33.901 74.4385 35.3379 76.5701 35.3379C78.835 35.3379 80.7501 34.001 80.7501 30.7433V22.8242H78.9182V23.5424ZM82.0822 31.1107H84.014V18.1461H82.0822V31.1107ZM86.8619 26.8338C86.8119 25.1295 88.1775 24.261 89.1599 24.261C89.9265 24.261 90.5757 24.645 90.7918 25.1968L86.8619 26.8338ZM92.8571 25.3637C92.4912 24.3777 91.3748 22.5568 89.0933 22.5568C86.8284 22.5568 84.9468 24.3445 84.9468 26.9674C84.9468 29.4402 86.8119 31.3781 89.3097 31.3781C91.3251 31.3781 92.4912 30.1417 92.9739 29.4235L91.475 28.4209C90.9758 29.1561 90.2925 29.6406 89.3097 29.6406C88.3273 29.6406 87.628 29.1894 87.1781 28.3042L93.0566 25.8648L92.8571 25.3637ZM46.0217 23.9102V25.7813H50.4847C50.3514 26.8338 50.0017 27.6022 49.4688 28.1369C48.8195 28.7887 47.8036 29.5069 46.0217 29.5069C43.2738 29.5069 41.1256 27.285 41.1256 24.5283C41.1256 21.7717 43.2738 19.5494 46.0217 19.5494C47.5039 19.5494 48.5861 20.1343 49.3856 20.8862L50.7011 19.5664C49.5855 18.4969 48.1031 17.6783 46.0217 17.6783C42.2578 17.6783 39.0938 20.7525 39.0938 24.5283C39.0938 28.3042 42.2578 31.3781 46.0217 31.3781C48.0535 31.3781 49.5855 30.7101 50.7844 29.4568C52.0168 28.2204 52.3999 26.4829 52.3999 25.0797C52.3999 24.645 52.3668 24.2444 52.2998 23.9102H46.0217ZM57.474 29.6406C56.1415 29.6406 54.9923 28.5379 54.9923 26.9674C54.9923 25.3803 56.1415 24.2943 57.474 24.2943C58.806 24.2943 59.9552 25.3803 59.9552 26.9674C59.9552 28.5379 58.806 29.6406 57.474 29.6406ZM57.474 22.5568C55.0423 22.5568 53.0605 24.4113 53.0605 26.9674C53.0605 29.5069 55.0423 31.3781 57.474 31.3781C59.9052 31.3781 61.887 29.5069 61.887 26.9674C61.887 24.4113 59.9052 22.5568 57.474 22.5568ZM67.1011 29.6406C65.7691 29.6406 64.6198 28.5379 64.6198 26.9674C64.6198 25.3803 65.7691 24.2943 67.1011 24.2943C68.4333 24.2943 69.5824 25.3803 69.5824 26.9674C69.5824 28.5379 68.4333 29.6406 67.1011 29.6406ZM67.1011 22.5568C64.6695 22.5568 62.6881 24.4113 62.6881 26.9674C62.6881 29.5069 64.6695 31.3781 67.1011 31.3781C69.5324 31.3781 71.5142 29.5069 71.5142 26.9674C71.5142 24.4113 69.5324 22.5568 67.1011 22.5568Z" fill="black"/>
<path d="M9.85892 33.5889L9.78211 33.5151C9.4813 33.1958 9.30371 32.7 9.30371 32.058V32.2091V9.27398C9.30371 9.2719 9.30371 9.27035 9.30371 9.26869C9.30371 9.27066 9.30371 9.27232 9.30371 9.27439V9.4259C9.30371 8.73067 9.51076 8.20697 9.85767 7.89296L22.6651 20.7413L9.85892 33.5889ZM9.30371 9.26745C9.30371 9.2103 9.30526 9.15482 9.30816 9.10017C9.30526 9.15441 9.30371 9.2103 9.30371 9.26745ZM9.30816 9.09768C9.30816 9.09696 9.30815 9.09613 9.30846 9.0953C9.30815 9.09613 9.30816 9.09696 9.30816 9.09768ZM9.30846 9.09042C9.30846 9.09001 9.30846 9.08959 9.30846 9.08918C9.30846 9.08959 9.30846 9.09001 9.30846 9.09042Z" fill="black"/>
<path d="M26.9335 25.1777L27.0309 25.1223L32.0887 22.2392C32.571 21.9642 32.8923 21.6308 33.0527 21.278C32.8927 21.6308 32.5713 21.9646 32.0887 22.2396L27.0309 25.1227L26.9335 25.1777ZM26.9348 25.0258L22.665 20.7416L26.9344 16.4581L32.0887 19.3958C32.7433 19.769 33.1108 20.2498 33.1722 20.7412C33.1722 20.7416 33.1722 20.7424 33.1722 20.7432C33.1108 21.2334 32.7433 21.7147 32.0887 22.0877L26.9348 25.0258Z" fill="black"/>
<path d="M10.7723 34.0781C10.4146 34.0781 10.1024 33.9615 9.85894 33.7411L9.85936 33.7407C10.1028 33.961 10.4154 34.0781 10.7732 34.0781C10.8042 34.0781 10.8357 34.0773 10.8676 34.0757C10.8353 34.0773 10.8033 34.0781 10.7723 34.0781ZM10.7727 33.9262C10.415 33.9266 10.1028 33.8095 9.85936 33.5892V33.5889L22.6655 20.7413L26.9353 25.0255L11.9308 33.5783C11.5157 33.8144 11.1223 33.9262 10.7727 33.9262ZM9.85574 33.7383C9.8331 33.7177 9.81087 33.6958 9.78906 33.6731L9.85574 33.7383Z" fill="black"/>
<path d="M22.6649 20.7412L9.85742 7.89284C10.1009 7.67289 10.4126 7.55622 10.77 7.55622C11.1205 7.55622 11.5141 7.66843 11.9301 7.90498L26.9342 16.4577L22.6649 20.7412ZM27.0307 16.361L11.9301 7.75357C11.5141 7.51691 11.1205 7.40471 10.77 7.40471C10.7683 7.40471 10.7672 7.40471 10.7655 7.40471C10.7676 7.40471 10.7692 7.40471 10.7716 7.40471C11.1213 7.40471 11.5146 7.5165 11.9301 7.75315L27.0307 16.361Z" fill="black"/>
<path d="M10.8673 34.0762C11.1923 34.0575 11.5521 33.9453 11.9305 33.7302L26.9337 25.1779L11.9305 33.7302C11.5525 33.9457 11.1923 34.0575 10.8673 34.0762ZM9.85862 33.7415L9.85541 33.7387C9.85655 33.7395 9.85779 33.7407 9.85862 33.7415ZM9.78874 33.6735L9.78223 33.6671V33.6666C9.78471 33.669 9.78667 33.6714 9.78874 33.6735Z" fill="black"/>
<path d="M26.9336 25.1777L27.031 25.1223L26.9336 25.1777Z" fill="black"/>
<path d="M10.7728 34.0781C10.4151 34.0781 10.1025 33.961 9.85903 33.7407L9.85862 33.7411C9.85779 33.7403 9.85655 33.7391 9.85541 33.7383L9.78874 33.6731C9.78667 33.671 9.78471 33.6686 9.78223 33.6662L9.85903 33.5892C10.1025 33.8095 10.4146 33.9266 10.7724 33.9262C11.122 33.9262 11.5153 33.8144 11.9305 33.5783L26.935 25.0255L27.0311 25.122L26.9337 25.1774L11.9305 33.7298C11.5521 33.9449 11.1923 34.0571 10.8673 34.0757C10.8354 34.0773 10.8038 34.0781 10.7728 34.0781Z" fill="black"/>
<path d="M9.78211 33.667C9.4813 33.3477 9.30371 32.8519 9.30371 32.2099V32.2094C9.30371 32.8519 9.4813 33.3473 9.78211 33.6666V33.667Z" fill="black"/>
<path d="M9.78211 33.666C9.4813 33.3467 9.30371 32.8513 9.30371 32.2089V32.0578C9.30371 32.6998 9.4813 33.1956 9.78211 33.5149L9.85892 33.5887L9.78211 33.666Z" fill="black"/>
<path d="M9.78223 33.666L9.85903 33.5886V33.589L9.78223 33.666Z" fill="black"/>
<path d="M33.0527 21.2773C33.1322 21.1023 33.1722 20.9225 33.1722 20.7425C33.1722 20.7422 33.1722 20.7418 33.1722 20.7418C33.1722 20.9221 33.1322 21.1019 33.0527 21.2773Z" fill="black"/>
<path d="M27.0307 25.1221L26.9346 25.0256L32.0885 22.0875C32.7431 21.7145 33.1106 21.2332 33.172 20.743C33.172 20.9229 33.132 21.1027 33.0525 21.2778C32.8921 21.6306 32.5708 21.964 32.0885 22.239L27.0307 25.1221Z" fill="black"/>
<path d="M33.1719 20.7412V20.7408C33.1715 20.1983 32.8101 19.656 32.0885 19.2444L27.0307 16.3613H27.0303L27.0307 16.361L32.0885 19.2439C32.811 19.6555 33.1728 20.1987 33.1719 20.7412Z" fill="black"/>
<path d="M33.1724 20.7412C33.111 20.2499 32.7435 19.769 32.0889 19.3959L26.9346 16.4581L27.0307 16.3617H27.0311L32.0889 19.2448C32.8106 19.6564 33.172 20.1987 33.1724 20.7412Z" fill="black"/>
<path d="M9.30371 9.26953C9.30371 9.26912 9.30371 9.2687 9.30371 9.26829C9.30371 9.2687 9.30371 9.26912 9.30371 9.26953ZM9.30816 9.10101C9.30816 9.10018 9.30816 9.09935 9.30816 9.09853C9.30816 9.09935 9.30816 9.10018 9.30816 9.10101ZM9.30846 9.09614C9.30846 9.09448 9.30846 9.09292 9.30846 9.09127C9.30846 9.09292 9.30846 9.09448 9.30846 9.09614ZM9.30846 9.09002C9.36832 8.02467 9.94575 7.40929 10.7626 7.40567C10.4084 7.40774 10.1 7.52441 9.8585 7.7427V7.74229L9.85561 7.74519C9.83018 7.76821 9.80599 7.79258 9.78211 7.81768C9.51076 8.10566 9.33958 8.53707 9.30846 9.09002Z" fill="black"/>
<path d="M9.30371 9.42578V9.27427C9.30371 9.2722 9.30371 9.27054 9.30371 9.26857C9.30371 9.26815 9.30371 9.26774 9.30371 9.26732C9.30371 9.21018 9.30526 9.15429 9.30816 9.10005C9.30816 9.09922 9.30816 9.09839 9.30816 9.09756C9.30816 9.09684 9.30815 9.096 9.30846 9.09517C9.30846 9.09352 9.30846 9.09196 9.30846 9.0903C9.30846 9.08989 9.30846 9.08947 9.30846 9.08906C9.33958 8.53611 9.51076 8.1047 9.78211 7.81672L9.85767 7.89283C9.51076 8.20685 9.30371 8.73055 9.30371 9.42578ZM9.85561 7.74423L9.8585 7.74132C9.85767 7.74257 9.85643 7.7434 9.85561 7.74423Z" fill="black"/>
<path d="M26.9345 16.458L11.9305 7.90525C11.5145 7.6687 11.1209 7.5565 10.7703 7.5565C10.413 7.5565 10.1012 7.67316 9.85779 7.89312L9.78223 7.817C9.80611 7.7919 9.83029 7.76753 9.85572 7.74451C9.85655 7.74368 9.85779 7.74285 9.85862 7.74202C10.1001 7.52373 10.4086 7.40706 10.7627 7.40499C10.7635 7.40499 10.7647 7.40499 10.7659 7.40499C10.7676 7.40499 10.7687 7.40499 10.7703 7.40499C11.1209 7.40499 11.5145 7.51719 11.9305 7.75384L27.0311 16.3613L27.0307 16.3616L26.9345 16.458Z" fill="black"/>
<path d="M39.3545 14.9348V12.2203H39.8363C39.9596 12.1069 40.0637 11.9715 40.1485 11.8143C40.2359 11.657 40.3091 11.4702 40.3682 11.2536C40.4299 11.0371 40.4813 10.7844 40.5224 10.4957C40.5635 10.2044 40.5995 9.87188 40.6303 9.49809L40.8153 7.28241H44.8393V12.2203H45.7489V14.9348H44.6234V13.2218H40.4954V14.9348H39.3545ZM41.0697 12.2203H43.7138V8.27231H41.8483L41.7249 9.49809C41.6658 10.1219 41.5913 10.6633 41.5014 11.1221C41.4114 11.5784 41.2675 11.9445 41.0697 12.2203Z" fill="black"/>
<path d="M49.1365 13.3417C48.5815 13.3417 48.0972 13.2141 47.6834 12.9589C47.2697 12.7037 46.9485 12.3466 46.7199 11.8878C46.4912 11.4289 46.3768 10.8927 46.3768 10.2792C46.3768 9.66307 46.4912 9.1243 46.7199 8.66286C46.9485 8.20142 47.2697 7.8431 47.6834 7.58789C48.0972 7.33268 48.5815 7.20508 49.1365 7.20508C49.6916 7.20508 50.1759 7.33268 50.5897 7.58789C51.0034 7.8431 51.3246 8.20142 51.5532 8.66286C51.7819 9.1243 51.8963 9.66307 51.8963 10.2792C51.8963 10.8927 51.7819 11.4289 51.5532 11.8878C51.3246 12.3466 51.0034 12.7037 50.5897 12.9589C50.1759 13.2141 49.6916 13.3417 49.1365 13.3417ZM49.1404 12.3711C49.5001 12.3711 49.7982 12.2757 50.0346 12.085C50.271 11.8942 50.4458 11.6403 50.5588 11.3232C50.6744 11.0061 50.7323 10.6568 50.7323 10.2753C50.7323 9.89637 50.6744 9.54835 50.5588 9.23128C50.4458 8.91162 50.271 8.65513 50.0346 8.46179C49.7982 8.26845 49.5001 8.17178 49.1404 8.17178C48.7781 8.17178 48.4775 8.26845 48.2385 8.46179C48.0021 8.65513 47.8261 8.91162 47.7104 9.23128C47.5974 9.54835 47.5408 9.89637 47.5408 10.2753C47.5408 10.6568 47.5974 11.0061 47.7104 11.3232C47.8261 11.6403 48.0021 11.8942 48.2385 12.085C48.4775 12.2757 48.7781 12.3711 49.1404 12.3711Z" fill="black"/>
<path d="M55.4439 13.3417C54.8709 13.3417 54.3775 13.2115 53.9638 12.9511C53.5527 12.6882 53.2366 12.326 53.0156 11.8646C52.7946 11.4031 52.6841 10.8747 52.6841 10.2792C52.6841 9.67596 52.7972 9.14363 53.0233 8.68219C53.2495 8.21818 53.5681 7.85599 53.9792 7.59562C54.3904 7.33526 54.8747 7.20508 55.4323 7.20508C55.882 7.20508 56.2829 7.28886 56.6349 7.45642C56.9869 7.6214 57.2709 7.85341 57.4867 8.15244C57.7051 8.45147 57.8349 8.80077 57.876 9.20034H56.7544C56.6927 8.92193 56.5514 8.68219 56.3304 8.48112C56.112 8.28005 55.819 8.17951 55.4516 8.17951C55.1304 8.17951 54.849 8.26458 54.6075 8.43472C54.3685 8.60228 54.1822 8.84202 54.0486 9.15394C53.915 9.46329 53.8482 9.82934 53.8482 10.2521C53.8482 10.6852 53.9137 11.059 54.0447 11.3735C54.1758 11.688 54.3608 11.9316 54.5998 12.1043C54.8413 12.277 55.1253 12.3634 55.4516 12.3634C55.67 12.3634 55.8679 12.3234 56.0452 12.2435C56.225 12.161 56.3754 12.0437 56.4961 11.8916C56.6195 11.7395 56.7055 11.5565 56.7544 11.3425H57.876C57.8349 11.7266 57.7103 12.0695 57.5021 12.3711C57.294 12.6727 57.0152 12.9099 56.6657 13.0826C56.3188 13.2553 55.9115 13.3417 55.4439 13.3417Z" fill="black"/>
<path d="M58.4278 8.28005V7.28241H63.4231V8.28005H61.492V13.2218H60.3665V8.28005H58.4278Z" fill="black"/>
<path d="M65.1379 15.4491C64.9657 15.4491 64.809 15.4349 64.6677 15.4065C64.5263 15.3808 64.421 15.3524 64.3516 15.3215L64.6291 14.3741C64.8398 14.4308 65.0274 14.4553 65.1919 14.4476C65.3563 14.4398 65.5015 14.378 65.6274 14.262C65.7559 14.146 65.8689 13.9565 65.9666 13.6936L66.1092 13.2991L63.943 7.28241H65.1764L66.6758 11.8916H66.7375L68.2368 7.28241H69.4741L67.0343 14.0145C66.9212 14.3238 66.7773 14.5855 66.6026 14.7995C66.4278 15.016 66.2197 15.1784 65.9781 15.2867C65.7366 15.3949 65.4565 15.4491 65.1379 15.4491Z" fill="black"/>
<path d="M70.3246 13.2218V7.28241H75.1541V13.2218H74.0248V8.28005H71.4462V13.2218H70.3246Z" fill="black"/>
<path d="M80.4747 9.75329V10.7548H77.2679V9.75329H80.4747ZM77.5916 7.28241V13.2218H76.4623V7.28241H77.5916ZM81.2803 7.28241V13.2218H80.1548V7.28241H81.2803Z" fill="black"/>
<path d="M85.0832 13.3417C84.5282 13.3417 84.0438 13.2141 83.6301 12.9589C83.2164 12.7037 82.8952 12.3466 82.6665 11.8878C82.4378 11.4289 82.3235 10.8927 82.3235 10.2792C82.3235 9.66307 82.4378 9.1243 82.6665 8.66286C82.8952 8.20142 83.2164 7.8431 83.6301 7.58789C84.0438 7.33268 84.5282 7.20508 85.0832 7.20508C85.6383 7.20508 86.1226 7.33268 86.5363 7.58789C86.95 7.8431 87.2712 8.20142 87.4999 8.66286C87.7286 9.1243 87.843 9.66307 87.843 10.2792C87.843 10.8927 87.7286 11.4289 87.4999 11.8878C87.2712 12.3466 86.95 12.7037 86.5363 12.9589C86.1226 13.2141 85.6383 13.3417 85.0832 13.3417ZM85.0871 12.3711C85.4468 12.3711 85.7449 12.2757 85.9813 12.085C86.2177 11.8942 86.3924 11.6403 86.5055 11.3232C86.6211 11.0061 86.6789 10.6568 86.6789 10.2753C86.6789 9.89637 86.6211 9.54835 86.5055 9.23128C86.3924 8.91162 86.2177 8.65513 85.9813 8.46179C85.7449 8.26845 85.4468 8.17178 85.0871 8.17178C84.7248 8.17178 84.4241 8.26845 84.1852 8.46179C83.9488 8.65513 83.7727 8.91162 83.6571 9.23128C83.5441 9.54835 83.4875 9.89637 83.4875 10.2753C83.4875 10.6568 83.5441 11.0061 83.6571 11.3232C83.7727 11.6403 83.9488 11.8942 84.1852 12.085C84.4241 12.2757 84.7248 12.3711 85.0871 12.3711Z" fill="black"/>
<path d="M91.5367 13.2218V7.28241H93.9919C94.66 7.28241 95.1893 7.42549 95.5799 7.71163C95.9705 7.99519 96.1658 8.38058 96.1658 8.8678C96.1658 9.21581 96.0553 9.49164 95.8343 9.69529C95.6133 9.89894 95.3204 10.0356 94.9555 10.1052C95.2202 10.1361 95.463 10.216 95.684 10.3449C95.905 10.4712 96.0823 10.6414 96.2159 10.8553C96.3521 11.0693 96.4202 11.3245 96.4202 11.621C96.4202 11.9355 96.3392 12.2139 96.1774 12.4562C96.0155 12.6959 95.7804 12.8841 95.472 13.0207C95.1662 13.1548 94.7975 13.2218 94.3658 13.2218H91.5367ZM92.6198 12.2551H94.3658C94.651 12.2551 94.8746 12.1868 95.0365 12.0502C95.1983 11.9135 95.2793 11.7279 95.2793 11.4934C95.2793 11.2175 95.1983 11.001 95.0365 10.8437C94.8746 10.6839 94.651 10.604 94.3658 10.604H92.6198V12.2551ZM92.6198 9.75716H94.0035C94.2193 9.75716 94.4043 9.72623 94.5585 9.66436C94.7153 9.60249 94.8347 9.51484 94.917 9.40142C95.0018 9.28541 95.0442 9.14879 95.0442 8.99154C95.0442 8.76211 94.9504 8.58295 94.7628 8.45405C94.5752 8.32516 94.3183 8.26071 93.9919 8.26071H92.6198V9.75716Z" fill="black"/>
</svg>
